<?xml version="1.0" standalone="no"?>
<!DOCTYPE svg PUBLIC "-//W3C//DTD SVG 20010904//EN"
 "http://www.w3.org/TR/2001/REC-SVG-20010904/DTD/svg10.dtd">
<svg version="1.0" xmlns="http://www.w3.org/2000/svg"
 width="25.000000pt" height="25.000000pt" viewBox="0 0 34.000000 34.000000"
 preserveAspectRatio="xMidYMid meet">

<g transform="translate(0.000000,34.000000) scale(0.100000,-0.100000)"
fill="#2a579c" stroke="none">
<path d="M92 328 c-7 -7 -12 -20 -12 -30 0 -10 -6 -18 -13 -18 -21 0 -47 -34
-47 -61 0 -14 -5 -30 -12 -37 -9 -9 -9 -15 0 -24 7 -7 12 -29 12 -49 0 -20 7
-42 15 -49 23 -19 18 -40 -10 -40 -14 0 -25 -4 -25 -10 0 -6 63 -10 170 -10
l170 0 0 70 c0 40 -4 70 -10 70 -6 0 -10 31 -10 73 0 98 -10 107 -113 107 -42
0 -79 5 -82 10 -8 13 -18 13 -33 -2z m28 -28 c0 -11 -4 -20 -10 -20 -5 0 -10
9 -10 20 0 11 5 20 10 20 6 0 10 -9 10 -20z m178 -82 c2 -49 -1 -78 -8 -78 -5
0 -10 -9 -10 -20 0 -16 -7 -20 -30 -20 -28 0 -30 -2 -30 -40 0 -36 -2 -40 -25
-40 -28 0 -31 16 -10 44 8 11 15 34 15 51 0 17 5 36 11 42 7 7 7 17 1 29 -5
11 -14 33 -18 49 -5 17 -19 34 -32 40 -41 18 -22 26 56 23 l77 -3 3 -77z
m-120 10 l3 -28 -70 0 c-68 0 -71 1 -71 23 0 34 8 38 75 35 57 -3 60 -4 63
-30z m22 -58 c0 -6 -37 -10 -90 -10 -53 0 -90 4 -90 10 0 6 37 10 90 10 53 0
90 -4 90 -10z m-22 -67 l-3 -38 -65 0 -65 0 -3 38 -3 37 71 0 71 0 -3 -37z
m142 7 c0 -5 -4 -10 -10 -10 -5 0 -10 5 -10 10 0 6 5 10 10 10 6 0 10 -4 10
-10z m0 -60 c0 -28 -2 -30 -40 -30 -38 0 -40 2 -40 30 0 28 2 30 40 30 38 0
40 -2 40 -30z m-170 -20 c0 -5 -18 -10 -40 -10 -22 0 -40 5 -40 10 0 6 18 10
40 10 22 0 40 -4 40 -10z"/>
</g>
</svg>
