<?xml version="1.0" standalone="no"?>
<!DOCTYPE svg PUBLIC "-//W3C//DTD SVG 20010904//EN"
 "http://www.w3.org/TR/2001/REC-SVG-20010904/DTD/svg10.dtd">
<svg version="1.0" xmlns="http://www.w3.org/2000/svg"
 width="25.000000pt" height="25.000000pt" viewBox="0 0 34.000000 30.000000"
 preserveAspectRatio="xMidYMid meet">

<g transform="translate(0.000000,30.000000) scale(0.100000,-0.100000)"
fill="#2a579c" stroke="none">
<path d="M77 271 c3 -14 -3 -23 -23 -33 -58 -27 -68 -108 -19 -146 13 -10 25
-32 27 -48 2 -22 9 -30 27 -32 13 -2 28 1 34 7 14 14 80 14 94 0 6 -6 21 -9
34 -7 18 2 25 10 27 32 2 15 15 39 30 51 35 30 37 94 4 127 -18 19 -36 23 -98
26 -68 4 -75 6 -71 23 4 16 -1 19 -33 19 -33 0 -37 -3 -33 -19z m43 -6 c0 -8
-4 -15 -10 -15 -5 0 -10 7 -10 15 0 8 5 15 10 15 6 0 10 -7 10 -15z m80 -85
c0 -47 11 -65 24 -37 5 10 7 10 12 0 13 -28 24 -10 24 37 0 54 9 61 40 30 26
-26 25 -68 -2 -97 -20 -21 -30 -23 -127 -23 -94 0 -107 2 -128 22 -13 12 -23
25 -23 30 0 4 34 8 75 8 43 0 75 4 75 10 0 6 -32 10 -75 10 -79 0 -88 7 -55
40 16 16 33 20 90 20 l70 0 0 -50z m40 40 c0 -5 -4 -10 -10 -10 -5 0 -10 5
-10 10 0 6 5 10 10 10 6 0 10 -4 10 -10z m0 -45 c0 -8 -4 -15 -10 -15 -5 0
-10 7 -10 15 0 8 5 15 10 15 6 0 10 -7 10 -15z m-122 -122 c5 -17 -26 -29 -40
-15 -6 6 -7 15 -3 22 9 14 37 9 43 -7z m92 7 c0 -5 -18 -10 -40 -10 -22 0 -40
5 -40 10 0 6 18 10 40 10 22 0 40 -4 40 -10z m58 -7 c5 -17 -26 -29 -40 -15
-6 6 -7 15 -3 22 9 14 37 9 43 -7z"/>
</g>
</svg>
