<?xml version="1.0" standalone="no"?>
<!DOCTYPE svg PUBLIC "-//W3C//DTD SVG 20010904//EN"
 "http://www.w3.org/TR/2001/REC-SVG-20010904/DTD/svg10.dtd">
<svg version="1.0" xmlns="http://www.w3.org/2000/svg"
 width="25.000000pt" height="25.000000pt" viewBox="0 0 31.000000 37.000000"
 preserveAspectRatio="xMidYMid meet">

<g transform="translate(0.000000,37.000000) scale(0.100000,-0.100000)"
fill="#2a579c" stroke="none">
<path d="M112 363 c-12 -2 -37 -19 -56 -37 -38 -35 -52 -84 -42 -139 7 -36 55
-92 87 -102 13 -4 19 -16 19 -36 0 -16 -5 -29 -11 -29 -5 0 -7 -5 -4 -10 8
-13 92 -13 100 0 3 6 1 10 -4 10 -6 0 -11 12 -11 28 0 21 8 32 33 45 123 68
90 255 -48 271 -22 2 -50 2 -63 -1z m98 -28 c71 -37 92 -120 47 -186 -69 -102
-227 -49 -227 75 0 92 99 153 180 111z m-40 -291 c0 -15 -6 -24 -15 -24 -15 0
-21 40 -9 53 12 11 24 -3 24 -29z"/>
<path d="M97 309 c-28 -17 -49 -68 -43 -104 7 -36 29 -60 46 -50 15 9 12 28
-4 22 -19 -7 -31 24 -14 35 11 6 11 10 0 16 -17 11 -4 45 14 38 9 -3 14 2 14
13 0 16 8 19 45 19 37 0 45 -3 45 -19 0 -11 5 -16 14 -13 18 7 31 -27 14 -38
-11 -6 -11 -10 0 -16 17 -11 5 -42 -14 -35 -16 6 -19 -13 -4 -22 17 -10 39 14
46 50 7 37 -15 89 -45 105 -25 13 -91 13 -114 -1z"/>
<path d="M153 235 c-9 -25 2 -27 22 -5 17 18 17 20 1 20 -9 0 -19 -7 -23 -15z"/>
</g>
</svg>
