<?xml version="1.0" standalone="no"?>
<!DOCTYPE svg PUBLIC "-//W3C//DTD SVG 20010904//EN"
 "http://www.w3.org/TR/2001/REC-SVG-20010904/DTD/svg10.dtd">
<svg version="1.0" xmlns="http://www.w3.org/2000/svg"
 width="30.000000pt" height="34.000000pt" viewBox="0 0 30.000000 34.000000"
 preserveAspectRatio="xMidYMid meet">

<g transform="translate(0.000000,34.000000) scale(0.100000,-0.100000)"
fill="#000000" stroke="none">
<path d="M120 328 c0 -7 -14 -26 -30 -42 -33 -32 -36 -52 -16 -109 l14 -38
-34 -14 c-36 -15 -54 -46 -54 -96 l0 -29 150 0 150 0 0 30 c0 45 -25 86 -59
98 -29 10 -29 11 -16 49 21 57 18 77 -15 109 -16 16 -30 35 -30 42 0 7 -13 12
-30 12 -17 0 -30 -5 -30 -12z m40 -23 c0 -8 -4 -15 -10 -15 -5 0 -10 7 -10 15
0 8 5 15 10 15 6 0 10 -7 10 -15z m-9 -35 c16 0 29 5 29 13 1 13 40 -30 40
-44 0 -5 -31 -9 -70 -9 -38 0 -70 3 -70 8 0 16 34 55 38 44 2 -7 17 -12 33
-12z m59 -82 c0 -12 -7 -30 -17 -40 -33 -37 -103 -11 -103 39 0 22 4 23 60 23
55 0 60 -2 60 -22z m10 -89 c0 -17 -9 -19 -70 -19 -61 0 -70 2 -70 19 0 16 9
18 70 18 61 0 70 -2 70 -18z m-160 -34 c0 -38 -3 -45 -20 -45 -15 0 -20 7 -20
27 0 22 24 63 37 63 1 0 3 -20 3 -45z m220 -17 c0 -21 -5 -28 -20 -28 -17 0
-20 7 -20 47 0 45 0 46 20 28 11 -10 20 -31 20 -47z m-60 -8 c0 -18 -7 -20
-70 -20 -63 0 -70 2 -70 20 0 18 7 20 70 20 63 0 70 -2 70 -20z"/>
</g>
</svg>
